# xmcd CD database file
# Copyright (C) 1993-1998 Ti Kan
# 
# Track frame offsets:
#     150
#     12707
#     29742
#     43572
#     55417
#     70352
#     82865
#     95812
#     109047
#     124765
#     140697
#     151175
#     162747
#     173407
#     190497
#     210977
#     230137
# 
# Disc length: 3251 seconds
# 
# Revision: 1
# Processed by: cddbd v1.4b41PL1 Copyright (c) Steve Scherf et al.
# Submitted via: DiscPlay 4.0.4
# 
DISCID=f40cb111
DTITLE=Highwaymen - The Highwaymen Perform on Their Own
DYEAR=1900
DGENRE=
TTITLE0=Folsom Prison Blues
TTITLE1=A Boy Named Sue
TTITLE2=Don't Take Your Guns To Town
TTITLE3=Ring Of Fire
TTITLE4=Luckenbach Texas (Back To The Basics Of Love)
TTITLE5=(I'm A) Ramblin Man
TTITLE6=The Eagle
TTITLE7=Are You Sure Hank Done It This Way
TTITLE8=Mama, Don't Let Your Babies Grow Up To Be Cowboys
TTITLE9=Always On My Mind
TTITLE10=Blue Eyes Crying In The Rain
TTITLE11=On The Road Again
TTITLE12=Help Me Make It Through The Night
TTITLE13=Loving Her Was Easier (Than Anything I'll Ever Do Again
TTITLE14=Sunday Morning Coming Down
TTITLE15=Me And Bobby McGee
TTITLE16=The Highwatman
EXTD=
EXTT0=
EXTT1=
EXTT2=
EXTT3=
EXTT4=
EXTT5=
EXTT6=
EXTT7=
EXTT8=
EXTT9=
EXTT10=
EXTT11=
EXTT12=
EXTT13=
EXTT14=
EXTT15=
EXTT16=
PLAYORDER=
